<mxfile host="Electron" agent="Mozilla/5.0 (Windows NT 10.0; Win64; x64) AppleWebKit/537.36 (KHTML, like Gecko) draw.io/25.0.2 Chrome/128.0.6613.186 Electron/32.2.5 Safari/537.36" version="25.0.2">
  <diagram name="Страница — 1" id="ermdwkiMV3YH3vsaSGWZ">
    <mxGraphModel dx="1036" dy="702" grid="1" gridSize="10" guides="1" tooltips="1" connect="1" arrows="1" fold="1" page="1" pageScale="1" pageWidth="827" pageHeight="1169" math="0" shadow="0">
      <root>
        <mxCell id="0" />
        <mxCell id="1" parent="0" />
        <mxCell id="2UGpfIgIsperbDdM3htT-1" value="Приложение для заказа кофе за 5 минут&amp;nbsp;" style="text;html=1;align=center;verticalAlign=middle;whiteSpace=wrap;rounded=0;fontStyle=1;fontSize=20;" parent="1" vertex="1">
          <mxGeometry x="40" y="40" width="760" height="40" as="geometry" />
        </mxCell>
        <mxCell id="2UGpfIgIsperbDdM3htT-6" value="&lt;p style=&quot;line-height: 130%;&quot;&gt;&lt;b&gt;Основная работа сайта и заказы:&lt;/b&gt;&lt;br&gt;- Регистрация пользователя и администратора в приложении&amp;nbsp;&lt;br&gt;- Авторизация пользователя&amp;nbsp;&lt;br&gt;- Возможность посмотреть профиль пользователя&lt;br&gt;- Поиск напитков&amp;nbsp;&lt;br&gt;- Рекомендация напитков по предыдущим предпочтениям пользователя (Главная страница)&lt;br&gt;- Меню напитков, разделенное по категориям (Фильтры)&lt;br&gt;- Возможность добавить напиток в корзину&amp;nbsp;&lt;br&gt;- Реализация корзины с рассчетом итоговый цены и т.д.&lt;br&gt;- Реализация создания заказа (указание информации для доставки и т.д.)&lt;/p&gt;&lt;div&gt;- Реализация оплаты заказа с помощью систем оплаты&lt;br&gt;- Создание бонусной системы за заказы&lt;br&gt;- Возможность открыть отдельную страницу каждого напитка и посмотреть подробную информацию о нем&lt;br&gt;- Возможность посмотреть информацию о заказах пользователя&lt;br&gt;- Статусы заказов: prepairing (заказ готовится), delivering (заказ доставляется), recieved (заказ получен)&lt;br&gt;- Пользователь может посмотреть, через сколько примерно заказ будет к нему доставлен&lt;br&gt;- Реферальная система для получения бонусов пригласившему пользователю и приглашенному пользователю&lt;br&gt;- Возможность авторизации с помощью vk, google и т.д.&lt;br&gt;&lt;br&gt;&lt;b&gt;Система учета бариста на рабочем месте:&lt;br&gt;&lt;/b&gt;- Статус бариста: relaxing (отдыхает), at work (на работе), break (перерыв)&lt;br&gt;- В зависимости от количества бариста на рабочем месте и количества других заказов, на заказ будет передаваться примерное время для доставки заказа&lt;br&gt;- Валидация: минимальное количества бариста на рабочем месте в зависимости от средней нагрузки на день в предыдущие дни&lt;br&gt;- Аналитика и статистика: какое кофе заказывали пользователи, какое количество заказов пользователей в зависимости от времени&lt;br&gt;&lt;br&gt;&lt;b&gt;Реализация блога:&lt;/b&gt;&lt;br&gt;- Реализация блога&lt;br&gt;- Реализация подписок на других пользователей&lt;br&gt;- Возможность лайкать и добавлять в избраное посты&lt;br&gt;- Возможность комментировать посты&lt;br&gt;- Статус автора постов в зависимости от полученных лайков за все посты&lt;br&gt;&lt;br&gt;&lt;b&gt;Уведомления и интеграции:&lt;/b&gt;&lt;br&gt;- Интеграция с системой уведомлений (SMS, email, уведомления в мобильном приложении)&lt;br&gt;- Отправка изменений о статусе заказа&lt;br&gt;- Отправка данных на мобильное приложение&lt;/div&gt;&lt;p&gt;&lt;/p&gt;" style="text;html=1;align=left;verticalAlign=middle;whiteSpace=wrap;rounded=0;" parent="1" vertex="1">
          <mxGeometry x="40" y="120" width="760" height="560" as="geometry" />
        </mxCell>
        <mxCell id="2UGpfIgIsperbDdM3htT-7" value="&lt;font style=&quot;&quot;&gt;&lt;b style=&quot;&quot;&gt;&lt;font style=&quot;font-size: 14px;&quot;&gt;Модель User:&lt;/font&gt;&lt;/b&gt;&lt;br&gt;&lt;/font&gt;&lt;b&gt;- first_name (str)&lt;br&gt;- last_name (str)&lt;/b&gt;&lt;br&gt;&lt;b&gt;- phone (Phone)&lt;/b&gt;&lt;div style=&quot;line-height: 130%;&quot;&gt;&lt;b&gt;- email (Email)&lt;/b&gt;&lt;br&gt;- nickname (str)&lt;br&gt;- telegram_id (str)&lt;br&gt;&lt;b&gt;- beans (int)&lt;br&gt;- subscribers (M2M -&amp;gt; self)&lt;br&gt;- subscriptions (M2M -&amp;gt; self)&lt;br&gt;- author_status (str)&lt;br&gt;- liked_posts (M2M -&amp;gt; Post)&lt;br&gt;- image (Image)&lt;/b&gt;&lt;/div&gt;" style="text;html=1;align=left;verticalAlign=middle;whiteSpace=wrap;rounded=0;" parent="1" vertex="1">
          <mxGeometry x="40" y="720" width="130" height="250" as="geometry" />
        </mxCell>
        <mxCell id="2UGpfIgIsperbDdM3htT-8" value="&lt;font style=&quot;font-size: 12px;&quot;&gt;&lt;b style=&quot;&quot;&gt;&lt;font style=&quot;font-size: 14px;&quot;&gt;Модель Product:&lt;/font&gt;&lt;br&gt;&lt;/b&gt;&lt;font style=&quot;font-size: 12px;&quot;&gt;&lt;b&gt;- name (str)&lt;br&gt;- price (float)&lt;br&gt;&lt;/b&gt;- description (str)&lt;br&gt;- category (str)&lt;br&gt;&lt;/font&gt;&lt;/font&gt;&lt;font style=&quot;font-size: 12px;&quot;&gt;&lt;b&gt;- availability (str)&lt;/b&gt;&lt;br&gt;- image (Image)&lt;br&gt;- rating (float)&lt;br&gt;&lt;b&gt;- create_date (Date)&lt;br&gt;&lt;/b&gt;- update_at (Date)&lt;/font&gt;" style="text;html=1;align=left;verticalAlign=middle;whiteSpace=wrap;rounded=0;" parent="1" vertex="1">
          <mxGeometry x="40" y="990" width="150" height="160" as="geometry" />
        </mxCell>
        <mxCell id="2UGpfIgIsperbDdM3htT-9" value="&lt;font style=&quot;font-size: 12px;&quot;&gt;&lt;b style=&quot;&quot;&gt;&lt;font style=&quot;font-size: 14px;&quot;&gt;Модель Cart:&lt;br&gt;&lt;/font&gt;- user (FK 1toM -&amp;gt; User&lt;br&gt;&lt;/b&gt;&lt;span style=&quot;&quot;&gt;&lt;b&gt;- products (M2M -&amp;gt; Product)&amp;nbsp;&lt;/b&gt;&lt;br&gt;&lt;b&gt;- sum (float)&lt;/b&gt;&lt;br&gt;&lt;/span&gt;&lt;/font&gt;" style="text;html=1;align=left;verticalAlign=middle;whiteSpace=wrap;rounded=0;" parent="1" vertex="1">
          <mxGeometry x="200" y="720" width="200" height="50" as="geometry" />
        </mxCell>
        <mxCell id="2UGpfIgIsperbDdM3htT-10" value="&lt;font style=&quot;font-size: 12px;&quot;&gt;&lt;b style=&quot;&quot;&gt;&lt;font style=&quot;font-size: 14px;&quot;&gt;Модель Order:&lt;/font&gt;&lt;/b&gt;&lt;/font&gt;&lt;div&gt;&lt;font style=&quot;&quot;&gt;&lt;b&gt;- user (FK 1toM -&amp;gt; User&lt;/b&gt;&lt;b style=&quot;&quot;&gt;&lt;span style=&quot;font-size: 14px;&quot;&gt;&lt;br&gt;&lt;/span&gt;&lt;/b&gt;&lt;span style=&quot;font-size: 12px;&quot;&gt;&lt;b&gt;- products (M2M -&amp;gt; Product)&amp;nbsp;&lt;br&gt;- cafe (FK 1toM -&amp;gt; Cafe)&lt;/b&gt;&lt;br&gt;&lt;b&gt;- sum (float)&lt;br&gt;- delivery_status (str)&lt;/b&gt;&lt;br&gt;&lt;b&gt;- payment_method (str)&lt;/b&gt;&lt;br&gt;&lt;b&gt;- address (str)&lt;/b&gt;&lt;br&gt;&lt;b&gt;- waiting_time (Time)&lt;br&gt;- order_status (str)&lt;br&gt;&lt;/b&gt;&lt;/span&gt;&lt;/font&gt;&lt;/div&gt;" style="text;html=1;align=left;verticalAlign=middle;whiteSpace=wrap;rounded=0;" parent="1" vertex="1">
          <mxGeometry x="200" y="800" width="210" height="130" as="geometry" />
        </mxCell>
        <mxCell id="2UGpfIgIsperbDdM3htT-11" value="&lt;font style=&quot;font-size: 12px;&quot;&gt;&lt;b style=&quot;&quot;&gt;&lt;font style=&quot;font-size: 14px;&quot;&gt;Модель Delivery:&lt;/font&gt;&lt;/b&gt;&lt;/font&gt;&lt;div&gt;&lt;font style=&quot;&quot;&gt;&lt;b&gt;- user (FK 1toM -&amp;gt; User&lt;/b&gt;&lt;b style=&quot;&quot;&gt;&lt;span style=&quot;font-size: 14px;&quot;&gt;&lt;br&gt;&lt;/span&gt;&lt;/b&gt;&lt;span style=&quot;font-size: 12px;&quot;&gt;&lt;b&gt;- order (FK 1toM -&amp;gt; Order)&lt;br&gt;- time_left (Time)&lt;/b&gt;&lt;br&gt;&lt;b&gt;- geolocation (?)&lt;/b&gt;&lt;br&gt;&lt;b&gt;- courier (FK 1toM -&amp;gt; Courier)&lt;/b&gt;&lt;br&gt;&lt;/span&gt;&lt;/font&gt;&lt;/div&gt;" style="text;html=1;align=left;verticalAlign=middle;whiteSpace=wrap;rounded=0;" parent="1" vertex="1">
          <mxGeometry x="400" y="720" width="210" height="130" as="geometry" />
        </mxCell>
        <mxCell id="2UGpfIgIsperbDdM3htT-14" value="&lt;font style=&quot;font-size: 12px;&quot;&gt;&lt;b style=&quot;&quot;&gt;&lt;font style=&quot;font-size: 14px;&quot;&gt;Модель Cafe:&lt;/font&gt;&lt;br&gt;&lt;/b&gt;&lt;span style=&quot;&quot;&gt;&lt;b&gt;- geolocation (?)&lt;br&gt;-&amp;nbsp;&lt;/b&gt;&lt;/span&gt;&lt;b&gt;address&amp;nbsp;&lt;/b&gt;&lt;span style=&quot;&quot;&gt;&lt;b&gt;(str)&lt;br&gt;- barista_number (int) (min = 2)&lt;/b&gt;&lt;br&gt;&lt;br&gt;&lt;/span&gt;&lt;/font&gt;" style="text;html=1;align=left;verticalAlign=middle;whiteSpace=wrap;rounded=0;" parent="1" vertex="1">
          <mxGeometry x="400" y="850" width="210" height="70" as="geometry" />
        </mxCell>
        <mxCell id="2UGpfIgIsperbDdM3htT-15" value="&lt;font style=&quot;font-size: 12px;&quot;&gt;&lt;b style=&quot;&quot;&gt;&lt;font style=&quot;font-size: 14px;&quot;&gt;Модель Post:&lt;/font&gt;&lt;br&gt;&lt;/b&gt;&lt;span style=&quot;&quot;&gt;&lt;b&gt;- author (FK 1toM -&amp;gt; User)&lt;br&gt;- title (str)&lt;/b&gt;&lt;/span&gt;&lt;/font&gt;&lt;div&gt;&lt;font style=&quot;font-size: 12px;&quot;&gt;&lt;span style=&quot;&quot;&gt;&lt;b&gt;- text (str)&lt;/b&gt;&lt;br&gt;- image (Image)&lt;br&gt;- comments (M2M -&amp;gt; Comment)&lt;br&gt;&lt;b&gt;- likes (int)&lt;br&gt;- create_datetime (DateTime)&lt;/b&gt;&lt;br&gt;&lt;br&gt;&lt;/span&gt;&lt;/font&gt;&lt;/div&gt;" style="text;html=1;align=left;verticalAlign=middle;whiteSpace=wrap;rounded=0;" parent="1" vertex="1">
          <mxGeometry x="400" y="940" width="210" height="120" as="geometry" />
        </mxCell>
        <mxCell id="2UGpfIgIsperbDdM3htT-16" value="&lt;font style=&quot;font-size: 12px;&quot;&gt;&lt;b style=&quot;&quot;&gt;&lt;font style=&quot;font-size: 14px;&quot;&gt;Модель Comment:&lt;/font&gt;&lt;br&gt;&lt;/b&gt;&lt;span style=&quot;&quot;&gt;&lt;b&gt;- commentator (FK 1toM -&amp;gt; User)&lt;/b&gt;&lt;br&gt;&lt;/span&gt;&lt;/font&gt;&lt;div&gt;&lt;font style=&quot;font-size: 12px;&quot;&gt;&lt;span style=&quot;&quot;&gt;&lt;b&gt;- text (str)&lt;br&gt;- likes (int)&lt;/b&gt;&lt;/span&gt;&lt;/font&gt;&lt;/div&gt;&lt;div&gt;&lt;font style=&quot;font-size: 12px;&quot;&gt;&lt;span style=&quot;&quot;&gt;&lt;b&gt;- create_datetime (DateTime)&lt;/b&gt;&lt;/span&gt;&lt;/font&gt;&lt;/div&gt;&lt;div&gt;&lt;font style=&quot;font-size: 12px;&quot;&gt;&lt;span style=&quot;&quot;&gt;&lt;b&gt;- is_changed (bool)&lt;/b&gt;&lt;br&gt;&lt;br&gt;&lt;/span&gt;&lt;/font&gt;&lt;/div&gt;" style="text;html=1;align=left;verticalAlign=middle;whiteSpace=wrap;rounded=0;" parent="1" vertex="1">
          <mxGeometry x="600" y="720" width="210" height="100" as="geometry" />
        </mxCell>
        <mxCell id="2UGpfIgIsperbDdM3htT-18" value="User" style="swimlane;fontStyle=0;childLayout=stackLayout;horizontal=1;startSize=26;horizontalStack=0;resizeParent=1;resizeParentMax=0;resizeLast=0;collapsible=1;marginBottom=0;align=center;fontSize=14;" parent="1" vertex="1">
          <mxGeometry x="80" y="1200" width="160" height="386" as="geometry">
            <mxRectangle x="80" y="1200" width="70" height="30" as="alternateBounds" />
          </mxGeometry>
        </mxCell>
        <mxCell id="2UGpfIgIsperbDdM3htT-19" value="&lt;b&gt;first_name&lt;/b&gt;" style="text;strokeColor=none;fillColor=none;spacingLeft=4;spacingRight=4;overflow=hidden;rotatable=0;points=[[0,0.5],[1,0.5]];portConstraint=eastwest;fontSize=12;whiteSpace=wrap;html=1;" parent="2UGpfIgIsperbDdM3htT-18" vertex="1">
          <mxGeometry y="26" width="160" height="30" as="geometry" />
        </mxCell>
        <mxCell id="2UGpfIgIsperbDdM3htT-20" value="&lt;b&gt;last_name&lt;/b&gt;" style="text;strokeColor=none;fillColor=none;spacingLeft=4;spacingRight=4;overflow=hidden;rotatable=0;points=[[0,0.5],[1,0.5]];portConstraint=eastwest;fontSize=12;whiteSpace=wrap;html=1;" parent="2UGpfIgIsperbDdM3htT-18" vertex="1">
          <mxGeometry y="56" width="160" height="30" as="geometry" />
        </mxCell>
        <mxCell id="2UGpfIgIsperbDdM3htT-21" value="&lt;b&gt;phone&amp;nbsp;&lt;/b&gt;" style="text;strokeColor=none;fillColor=none;spacingLeft=4;spacingRight=4;overflow=hidden;rotatable=0;points=[[0,0.5],[1,0.5]];portConstraint=eastwest;fontSize=12;whiteSpace=wrap;html=1;" parent="2UGpfIgIsperbDdM3htT-18" vertex="1">
          <mxGeometry y="86" width="160" height="30" as="geometry" />
        </mxCell>
        <mxCell id="2UGpfIgIsperbDdM3htT-23" value="&lt;b&gt;email&lt;/b&gt;" style="text;strokeColor=none;fillColor=none;spacingLeft=4;spacingRight=4;overflow=hidden;rotatable=0;points=[[0,0.5],[1,0.5]];portConstraint=eastwest;fontSize=12;whiteSpace=wrap;html=1;" parent="2UGpfIgIsperbDdM3htT-18" vertex="1">
          <mxGeometry y="116" width="160" height="30" as="geometry" />
        </mxCell>
        <mxCell id="2UGpfIgIsperbDdM3htT-24" value="nickname" style="text;strokeColor=none;fillColor=none;spacingLeft=4;spacingRight=4;overflow=hidden;rotatable=0;points=[[0,0.5],[1,0.5]];portConstraint=eastwest;fontSize=12;whiteSpace=wrap;html=1;" parent="2UGpfIgIsperbDdM3htT-18" vertex="1">
          <mxGeometry y="146" width="160" height="30" as="geometry" />
        </mxCell>
        <mxCell id="2UGpfIgIsperbDdM3htT-25" value="telegram_id" style="text;strokeColor=none;fillColor=none;spacingLeft=4;spacingRight=4;overflow=hidden;rotatable=0;points=[[0,0.5],[1,0.5]];portConstraint=eastwest;fontSize=12;whiteSpace=wrap;html=1;" parent="2UGpfIgIsperbDdM3htT-18" vertex="1">
          <mxGeometry y="176" width="160" height="30" as="geometry" />
        </mxCell>
        <mxCell id="2UGpfIgIsperbDdM3htT-26" value="&lt;b&gt;beans&lt;/b&gt;" style="text;strokeColor=none;fillColor=none;spacingLeft=4;spacingRight=4;overflow=hidden;rotatable=0;points=[[0,0.5],[1,0.5]];portConstraint=eastwest;fontSize=12;whiteSpace=wrap;html=1;" parent="2UGpfIgIsperbDdM3htT-18" vertex="1">
          <mxGeometry y="206" width="160" height="30" as="geometry" />
        </mxCell>
        <mxCell id="2UGpfIgIsperbDdM3htT-27" value="&lt;b&gt;subscribers&lt;/b&gt;" style="text;strokeColor=none;fillColor=none;spacingLeft=4;spacingRight=4;overflow=hidden;rotatable=0;points=[[0,0.5],[1,0.5]];portConstraint=eastwest;fontSize=12;whiteSpace=wrap;html=1;" parent="2UGpfIgIsperbDdM3htT-18" vertex="1">
          <mxGeometry y="236" width="160" height="30" as="geometry" />
        </mxCell>
        <mxCell id="2UGpfIgIsperbDdM3htT-28" value="&lt;b&gt;subscriptions&lt;/b&gt;" style="text;strokeColor=none;fillColor=none;spacingLeft=4;spacingRight=4;overflow=hidden;rotatable=0;points=[[0,0.5],[1,0.5]];portConstraint=eastwest;fontSize=12;whiteSpace=wrap;html=1;" parent="2UGpfIgIsperbDdM3htT-18" vertex="1">
          <mxGeometry y="266" width="160" height="30" as="geometry" />
        </mxCell>
        <mxCell id="2UGpfIgIsperbDdM3htT-29" value="&lt;b&gt;author_status&lt;/b&gt;" style="text;strokeColor=none;fillColor=none;spacingLeft=4;spacingRight=4;overflow=hidden;rotatable=0;points=[[0,0.5],[1,0.5]];portConstraint=eastwest;fontSize=12;whiteSpace=wrap;html=1;" parent="2UGpfIgIsperbDdM3htT-18" vertex="1">
          <mxGeometry y="296" width="160" height="30" as="geometry" />
        </mxCell>
        <mxCell id="2UGpfIgIsperbDdM3htT-30" value="&lt;b&gt;liked_posts&lt;/b&gt;" style="text;strokeColor=none;fillColor=none;spacingLeft=4;spacingRight=4;overflow=hidden;rotatable=0;points=[[0,0.5],[1,0.5]];portConstraint=eastwest;fontSize=12;whiteSpace=wrap;html=1;" parent="2UGpfIgIsperbDdM3htT-18" vertex="1">
          <mxGeometry y="326" width="160" height="30" as="geometry" />
        </mxCell>
        <mxCell id="2UGpfIgIsperbDdM3htT-93" value="&lt;b&gt;image&lt;/b&gt;" style="text;strokeColor=none;fillColor=none;spacingLeft=4;spacingRight=4;overflow=hidden;rotatable=0;points=[[0,0.5],[1,0.5]];portConstraint=eastwest;fontSize=12;whiteSpace=wrap;html=1;" parent="2UGpfIgIsperbDdM3htT-18" vertex="1">
          <mxGeometry y="356" width="160" height="30" as="geometry" />
        </mxCell>
        <mxCell id="2UGpfIgIsperbDdM3htT-31" value="Product" style="swimlane;fontStyle=0;childLayout=stackLayout;horizontal=1;startSize=26;horizontalStack=0;resizeParent=1;resizeParentMax=0;resizeLast=0;collapsible=1;marginBottom=0;align=center;fontSize=14;" parent="1" vertex="1">
          <mxGeometry x="80" y="1630" width="160" height="296" as="geometry">
            <mxRectangle x="80" y="1200" width="70" height="30" as="alternateBounds" />
          </mxGeometry>
        </mxCell>
        <mxCell id="2UGpfIgIsperbDdM3htT-32" value="&lt;b&gt;name&lt;/b&gt;" style="text;strokeColor=none;fillColor=none;spacingLeft=4;spacingRight=4;overflow=hidden;rotatable=0;points=[[0,0.5],[1,0.5]];portConstraint=eastwest;fontSize=12;whiteSpace=wrap;html=1;" parent="2UGpfIgIsperbDdM3htT-31" vertex="1">
          <mxGeometry y="26" width="160" height="30" as="geometry" />
        </mxCell>
        <mxCell id="2UGpfIgIsperbDdM3htT-33" value="&lt;b&gt;price&lt;/b&gt;" style="text;strokeColor=none;fillColor=none;spacingLeft=4;spacingRight=4;overflow=hidden;rotatable=0;points=[[0,0.5],[1,0.5]];portConstraint=eastwest;fontSize=12;whiteSpace=wrap;html=1;" parent="2UGpfIgIsperbDdM3htT-31" vertex="1">
          <mxGeometry y="56" width="160" height="30" as="geometry" />
        </mxCell>
        <mxCell id="2UGpfIgIsperbDdM3htT-34" value="description" style="text;strokeColor=none;fillColor=none;spacingLeft=4;spacingRight=4;overflow=hidden;rotatable=0;points=[[0,0.5],[1,0.5]];portConstraint=eastwest;fontSize=12;whiteSpace=wrap;html=1;" parent="2UGpfIgIsperbDdM3htT-31" vertex="1">
          <mxGeometry y="86" width="160" height="30" as="geometry" />
        </mxCell>
        <mxCell id="2UGpfIgIsperbDdM3htT-35" value="category" style="text;strokeColor=none;fillColor=none;spacingLeft=4;spacingRight=4;overflow=hidden;rotatable=0;points=[[0,0.5],[1,0.5]];portConstraint=eastwest;fontSize=12;whiteSpace=wrap;html=1;" parent="2UGpfIgIsperbDdM3htT-31" vertex="1">
          <mxGeometry y="116" width="160" height="30" as="geometry" />
        </mxCell>
        <mxCell id="2UGpfIgIsperbDdM3htT-36" value="&lt;b&gt;availability&lt;/b&gt;" style="text;strokeColor=none;fillColor=none;spacingLeft=4;spacingRight=4;overflow=hidden;rotatable=0;points=[[0,0.5],[1,0.5]];portConstraint=eastwest;fontSize=12;whiteSpace=wrap;html=1;" parent="2UGpfIgIsperbDdM3htT-31" vertex="1">
          <mxGeometry y="146" width="160" height="30" as="geometry" />
        </mxCell>
        <mxCell id="2UGpfIgIsperbDdM3htT-37" value="&lt;span&gt;image&lt;/span&gt;" style="text;strokeColor=none;fillColor=none;spacingLeft=4;spacingRight=4;overflow=hidden;rotatable=0;points=[[0,0.5],[1,0.5]];portConstraint=eastwest;fontSize=12;whiteSpace=wrap;html=1;fontStyle=0" parent="2UGpfIgIsperbDdM3htT-31" vertex="1">
          <mxGeometry y="176" width="160" height="30" as="geometry" />
        </mxCell>
        <mxCell id="2UGpfIgIsperbDdM3htT-38" value="rating" style="text;strokeColor=none;fillColor=none;spacingLeft=4;spacingRight=4;overflow=hidden;rotatable=0;points=[[0,0.5],[1,0.5]];portConstraint=eastwest;fontSize=12;whiteSpace=wrap;html=1;" parent="2UGpfIgIsperbDdM3htT-31" vertex="1">
          <mxGeometry y="206" width="160" height="30" as="geometry" />
        </mxCell>
        <mxCell id="2UGpfIgIsperbDdM3htT-39" value="&lt;b&gt;create_date&lt;/b&gt;" style="text;strokeColor=none;fillColor=none;spacingLeft=4;spacingRight=4;overflow=hidden;rotatable=0;points=[[0,0.5],[1,0.5]];portConstraint=eastwest;fontSize=12;whiteSpace=wrap;html=1;" parent="2UGpfIgIsperbDdM3htT-31" vertex="1">
          <mxGeometry y="236" width="160" height="30" as="geometry" />
        </mxCell>
        <mxCell id="2UGpfIgIsperbDdM3htT-40" value="updated_at" style="text;strokeColor=none;fillColor=none;spacingLeft=4;spacingRight=4;overflow=hidden;rotatable=0;points=[[0,0.5],[1,0.5]];portConstraint=eastwest;fontSize=12;whiteSpace=wrap;html=1;" parent="2UGpfIgIsperbDdM3htT-31" vertex="1">
          <mxGeometry y="266" width="160" height="30" as="geometry" />
        </mxCell>
        <mxCell id="2UGpfIgIsperbDdM3htT-43" value="Cart" style="swimlane;fontStyle=0;childLayout=stackLayout;horizontal=1;startSize=26;horizontalStack=0;resizeParent=1;resizeParentMax=0;resizeLast=0;collapsible=1;marginBottom=0;align=center;fontSize=14;" parent="1" vertex="1">
          <mxGeometry x="320" y="1200" width="160" height="116" as="geometry">
            <mxRectangle x="80" y="1200" width="70" height="30" as="alternateBounds" />
          </mxGeometry>
        </mxCell>
        <mxCell id="LiLD6YsfcbwsXmjhns37-1" value="user" style="text;strokeColor=none;fillColor=none;spacingLeft=4;spacingRight=4;overflow=hidden;rotatable=0;points=[[0,0.5],[1,0.5]];portConstraint=eastwest;fontSize=12;whiteSpace=wrap;html=1;fontStyle=1" parent="2UGpfIgIsperbDdM3htT-43" vertex="1">
          <mxGeometry y="26" width="160" height="30" as="geometry" />
        </mxCell>
        <mxCell id="2UGpfIgIsperbDdM3htT-44" value="products" style="text;strokeColor=none;fillColor=none;spacingLeft=4;spacingRight=4;overflow=hidden;rotatable=0;points=[[0,0.5],[1,0.5]];portConstraint=eastwest;fontSize=12;whiteSpace=wrap;html=1;fontStyle=1" parent="2UGpfIgIsperbDdM3htT-43" vertex="1">
          <mxGeometry y="56" width="160" height="30" as="geometry" />
        </mxCell>
        <mxCell id="2UGpfIgIsperbDdM3htT-45" value="sum" style="text;strokeColor=none;fillColor=none;spacingLeft=4;spacingRight=4;overflow=hidden;rotatable=0;points=[[0,0.5],[1,0.5]];portConstraint=eastwest;fontSize=12;whiteSpace=wrap;html=1;fontStyle=1" parent="2UGpfIgIsperbDdM3htT-43" vertex="1">
          <mxGeometry y="86" width="160" height="30" as="geometry" />
        </mxCell>
        <mxCell id="2UGpfIgIsperbDdM3htT-57" style="edgeStyle=orthogonalEdgeStyle;rounded=0;orthogonalLoop=1;jettySize=auto;html=1;entryX=1;entryY=0.5;entryDx=0;entryDy=0;" parent="1" source="2UGpfIgIsperbDdM3htT-44" target="2UGpfIgIsperbDdM3htT-35" edge="1">
          <mxGeometry relative="1" as="geometry" />
        </mxCell>
        <mxCell id="2UGpfIgIsperbDdM3htT-58" value="Order" style="swimlane;fontStyle=0;childLayout=stackLayout;horizontal=1;startSize=26;horizontalStack=0;resizeParent=1;resizeParentMax=0;resizeLast=0;collapsible=1;marginBottom=0;align=center;fontSize=14;" parent="1" vertex="1">
          <mxGeometry x="320" y="1320" width="160" height="296" as="geometry">
            <mxRectangle x="80" y="1200" width="70" height="30" as="alternateBounds" />
          </mxGeometry>
        </mxCell>
        <mxCell id="LiLD6YsfcbwsXmjhns37-3" value="user" style="text;strokeColor=none;fillColor=none;spacingLeft=4;spacingRight=4;overflow=hidden;rotatable=0;points=[[0,0.5],[1,0.5]];portConstraint=eastwest;fontSize=12;whiteSpace=wrap;html=1;fontStyle=1" parent="2UGpfIgIsperbDdM3htT-58" vertex="1">
          <mxGeometry y="26" width="160" height="30" as="geometry" />
        </mxCell>
        <mxCell id="2UGpfIgIsperbDdM3htT-59" value="&lt;span&gt;products&lt;/span&gt;" style="text;strokeColor=none;fillColor=none;spacingLeft=4;spacingRight=4;overflow=hidden;rotatable=0;points=[[0,0.5],[1,0.5]];portConstraint=eastwest;fontSize=12;whiteSpace=wrap;html=1;fontStyle=1" parent="2UGpfIgIsperbDdM3htT-58" vertex="1">
          <mxGeometry y="56" width="160" height="30" as="geometry" />
        </mxCell>
        <mxCell id="2UGpfIgIsperbDdM3htT-60" value="&lt;span&gt;cafe&lt;/span&gt;" style="text;strokeColor=none;fillColor=none;spacingLeft=4;spacingRight=4;overflow=hidden;rotatable=0;points=[[0,0.5],[1,0.5]];portConstraint=eastwest;fontSize=12;whiteSpace=wrap;html=1;fontStyle=1" parent="2UGpfIgIsperbDdM3htT-58" vertex="1">
          <mxGeometry y="86" width="160" height="30" as="geometry" />
        </mxCell>
        <mxCell id="2UGpfIgIsperbDdM3htT-61" value="sum" style="text;strokeColor=none;fillColor=none;spacingLeft=4;spacingRight=4;overflow=hidden;rotatable=0;points=[[0,0.5],[1,0.5]];portConstraint=eastwest;fontSize=12;whiteSpace=wrap;html=1;fontStyle=1" parent="2UGpfIgIsperbDdM3htT-58" vertex="1">
          <mxGeometry y="116" width="160" height="30" as="geometry" />
        </mxCell>
        <mxCell id="2UGpfIgIsperbDdM3htT-62" value="&lt;span&gt;delivery_status&lt;/span&gt;" style="text;strokeColor=none;fillColor=none;spacingLeft=4;spacingRight=4;overflow=hidden;rotatable=0;points=[[0,0.5],[1,0.5]];portConstraint=eastwest;fontSize=12;whiteSpace=wrap;html=1;fontStyle=1" parent="2UGpfIgIsperbDdM3htT-58" vertex="1">
          <mxGeometry y="146" width="160" height="30" as="geometry" />
        </mxCell>
        <mxCell id="2UGpfIgIsperbDdM3htT-63" value="&lt;span&gt;payment_method&lt;/span&gt;" style="text;strokeColor=none;fillColor=none;spacingLeft=4;spacingRight=4;overflow=hidden;rotatable=0;points=[[0,0.5],[1,0.5]];portConstraint=eastwest;fontSize=12;whiteSpace=wrap;html=1;fontStyle=1" parent="2UGpfIgIsperbDdM3htT-58" vertex="1">
          <mxGeometry y="176" width="160" height="30" as="geometry" />
        </mxCell>
        <mxCell id="2UGpfIgIsperbDdM3htT-64" value="&lt;b&gt;address&amp;nbsp;&lt;/b&gt;" style="text;strokeColor=none;fillColor=none;spacingLeft=4;spacingRight=4;overflow=hidden;rotatable=0;points=[[0,0.5],[1,0.5]];portConstraint=eastwest;fontSize=12;whiteSpace=wrap;html=1;fontStyle=1" parent="2UGpfIgIsperbDdM3htT-58" vertex="1">
          <mxGeometry y="206" width="160" height="30" as="geometry" />
        </mxCell>
        <mxCell id="2UGpfIgIsperbDdM3htT-65" value="&lt;span&gt;waiting_time&lt;/span&gt;" style="text;strokeColor=none;fillColor=none;spacingLeft=4;spacingRight=4;overflow=hidden;rotatable=0;points=[[0,0.5],[1,0.5]];portConstraint=eastwest;fontSize=12;whiteSpace=wrap;html=1;fontStyle=1" parent="2UGpfIgIsperbDdM3htT-58" vertex="1">
          <mxGeometry y="236" width="160" height="30" as="geometry" />
        </mxCell>
        <mxCell id="2UGpfIgIsperbDdM3htT-66" value="&lt;span&gt;order_status&lt;/span&gt;" style="text;strokeColor=none;fillColor=none;spacingLeft=4;spacingRight=4;overflow=hidden;rotatable=0;points=[[0,0.5],[1,0.5]];portConstraint=eastwest;fontSize=12;whiteSpace=wrap;html=1;fontStyle=1" parent="2UGpfIgIsperbDdM3htT-58" vertex="1">
          <mxGeometry y="266" width="160" height="30" as="geometry" />
        </mxCell>
        <mxCell id="2UGpfIgIsperbDdM3htT-68" style="edgeStyle=orthogonalEdgeStyle;rounded=0;orthogonalLoop=1;jettySize=auto;html=1;entryX=1.018;entryY=0.92;entryDx=0;entryDy=0;entryPerimeter=0;" parent="1" source="2UGpfIgIsperbDdM3htT-59" target="2UGpfIgIsperbDdM3htT-36" edge="1">
          <mxGeometry relative="1" as="geometry">
            <Array as="points">
              <mxPoint x="300" y="1390" />
              <mxPoint x="300" y="1780" />
              <mxPoint x="250" y="1780" />
              <mxPoint x="250" y="1804" />
            </Array>
          </mxGeometry>
        </mxCell>
        <mxCell id="2UGpfIgIsperbDdM3htT-69" value="Cafe" style="swimlane;fontStyle=0;childLayout=stackLayout;horizontal=1;startSize=26;horizontalStack=0;resizeParent=1;resizeParentMax=0;resizeLast=0;collapsible=1;marginBottom=0;align=center;fontSize=14;" parent="1" vertex="1">
          <mxGeometry x="520" y="1200" width="160" height="116" as="geometry">
            <mxRectangle x="80" y="1200" width="70" height="30" as="alternateBounds" />
          </mxGeometry>
        </mxCell>
        <mxCell id="2UGpfIgIsperbDdM3htT-70" value="geolocation" style="text;strokeColor=none;fillColor=none;spacingLeft=4;spacingRight=4;overflow=hidden;rotatable=0;points=[[0,0.5],[1,0.5]];portConstraint=eastwest;fontSize=12;whiteSpace=wrap;html=1;fontStyle=1" parent="2UGpfIgIsperbDdM3htT-69" vertex="1">
          <mxGeometry y="26" width="160" height="30" as="geometry" />
        </mxCell>
        <mxCell id="2UGpfIgIsperbDdM3htT-71" value="&lt;b&gt;address&amp;nbsp;&lt;/b&gt;" style="text;strokeColor=none;fillColor=none;spacingLeft=4;spacingRight=4;overflow=hidden;rotatable=0;points=[[0,0.5],[1,0.5]];portConstraint=eastwest;fontSize=12;whiteSpace=wrap;html=1;fontStyle=1" parent="2UGpfIgIsperbDdM3htT-69" vertex="1">
          <mxGeometry y="56" width="160" height="30" as="geometry" />
        </mxCell>
        <mxCell id="2UGpfIgIsperbDdM3htT-72" value="barista_number" style="text;strokeColor=none;fillColor=none;spacingLeft=4;spacingRight=4;overflow=hidden;rotatable=0;points=[[0,0.5],[1,0.5]];portConstraint=eastwest;fontSize=12;whiteSpace=wrap;html=1;fontStyle=1" parent="2UGpfIgIsperbDdM3htT-69" vertex="1">
          <mxGeometry y="86" width="160" height="30" as="geometry" />
        </mxCell>
        <mxCell id="2UGpfIgIsperbDdM3htT-73" style="edgeStyle=orthogonalEdgeStyle;rounded=0;orthogonalLoop=1;jettySize=auto;html=1;entryX=0.003;entryY=0.131;entryDx=0;entryDy=0;entryPerimeter=0;" parent="1" source="2UGpfIgIsperbDdM3htT-60" target="2UGpfIgIsperbDdM3htT-69" edge="1">
          <mxGeometry relative="1" as="geometry" />
        </mxCell>
        <mxCell id="2UGpfIgIsperbDdM3htT-74" value="Delivery" style="swimlane;fontStyle=0;childLayout=stackLayout;horizontal=1;startSize=26;horizontalStack=0;resizeParent=1;resizeParentMax=0;resizeLast=0;collapsible=1;marginBottom=0;align=center;fontSize=14;" parent="1" vertex="1">
          <mxGeometry x="520" y="1360" width="160" height="176" as="geometry">
            <mxRectangle x="80" y="1200" width="70" height="30" as="alternateBounds" />
          </mxGeometry>
        </mxCell>
        <mxCell id="LiLD6YsfcbwsXmjhns37-4" value="user" style="text;strokeColor=none;fillColor=none;spacingLeft=4;spacingRight=4;overflow=hidden;rotatable=0;points=[[0,0.5],[1,0.5]];portConstraint=eastwest;fontSize=12;whiteSpace=wrap;html=1;fontStyle=1" parent="2UGpfIgIsperbDdM3htT-74" vertex="1">
          <mxGeometry y="26" width="160" height="30" as="geometry" />
        </mxCell>
        <mxCell id="2UGpfIgIsperbDdM3htT-75" value="&lt;span&gt;order&lt;/span&gt;" style="text;strokeColor=none;fillColor=none;spacingLeft=4;spacingRight=4;overflow=hidden;rotatable=0;points=[[0,0.5],[1,0.5]];portConstraint=eastwest;fontSize=12;whiteSpace=wrap;html=1;fontStyle=1" parent="2UGpfIgIsperbDdM3htT-74" vertex="1">
          <mxGeometry y="56" width="160" height="30" as="geometry" />
        </mxCell>
        <mxCell id="2UGpfIgIsperbDdM3htT-76" value="&lt;span&gt;time_left&lt;/span&gt;" style="text;strokeColor=none;fillColor=none;spacingLeft=4;spacingRight=4;overflow=hidden;rotatable=0;points=[[0,0.5],[1,0.5]];portConstraint=eastwest;fontSize=12;whiteSpace=wrap;html=1;fontStyle=1" parent="2UGpfIgIsperbDdM3htT-74" vertex="1">
          <mxGeometry y="86" width="160" height="30" as="geometry" />
        </mxCell>
        <mxCell id="2UGpfIgIsperbDdM3htT-77" value="geolocation" style="text;strokeColor=none;fillColor=none;spacingLeft=4;spacingRight=4;overflow=hidden;rotatable=0;points=[[0,0.5],[1,0.5]];portConstraint=eastwest;fontSize=12;whiteSpace=wrap;html=1;fontStyle=1" parent="2UGpfIgIsperbDdM3htT-74" vertex="1">
          <mxGeometry y="116" width="160" height="30" as="geometry" />
        </mxCell>
        <mxCell id="2UGpfIgIsperbDdM3htT-78" value="&lt;b&gt;courier&lt;/b&gt;" style="text;strokeColor=none;fillColor=none;spacingLeft=4;spacingRight=4;overflow=hidden;rotatable=0;points=[[0,0.5],[1,0.5]];portConstraint=eastwest;fontSize=12;whiteSpace=wrap;html=1;" parent="2UGpfIgIsperbDdM3htT-74" vertex="1">
          <mxGeometry y="146" width="160" height="30" as="geometry" />
        </mxCell>
        <mxCell id="2UGpfIgIsperbDdM3htT-84" style="edgeStyle=orthogonalEdgeStyle;rounded=0;orthogonalLoop=1;jettySize=auto;html=1;entryX=1.018;entryY=0.133;entryDx=0;entryDy=0;entryPerimeter=0;" parent="1" source="2UGpfIgIsperbDdM3htT-75" target="2UGpfIgIsperbDdM3htT-62" edge="1">
          <mxGeometry relative="1" as="geometry" />
        </mxCell>
        <mxCell id="2UGpfIgIsperbDdM3htT-85" value="Post" style="swimlane;fontStyle=0;childLayout=stackLayout;horizontal=1;startSize=26;horizontalStack=0;resizeParent=1;resizeParentMax=0;resizeLast=0;collapsible=1;marginBottom=0;align=center;fontSize=14;" parent="1" vertex="1">
          <mxGeometry x="520" y="1600" width="160" height="236" as="geometry">
            <mxRectangle x="80" y="1200" width="70" height="30" as="alternateBounds" />
          </mxGeometry>
        </mxCell>
        <mxCell id="2UGpfIgIsperbDdM3htT-86" value="&lt;span&gt;author&lt;/span&gt;" style="text;strokeColor=none;fillColor=none;spacingLeft=4;spacingRight=4;overflow=hidden;rotatable=0;points=[[0,0.5],[1,0.5]];portConstraint=eastwest;fontSize=12;whiteSpace=wrap;html=1;fontStyle=1" parent="2UGpfIgIsperbDdM3htT-85" vertex="1">
          <mxGeometry y="26" width="160" height="30" as="geometry" />
        </mxCell>
        <mxCell id="2UGpfIgIsperbDdM3htT-87" value="&lt;span&gt;title&lt;/span&gt;" style="text;strokeColor=none;fillColor=none;spacingLeft=4;spacingRight=4;overflow=hidden;rotatable=0;points=[[0,0.5],[1,0.5]];portConstraint=eastwest;fontSize=12;whiteSpace=wrap;html=1;fontStyle=1" parent="2UGpfIgIsperbDdM3htT-85" vertex="1">
          <mxGeometry y="56" width="160" height="30" as="geometry" />
        </mxCell>
        <mxCell id="2UGpfIgIsperbDdM3htT-88" value="text" style="text;strokeColor=none;fillColor=none;spacingLeft=4;spacingRight=4;overflow=hidden;rotatable=0;points=[[0,0.5],[1,0.5]];portConstraint=eastwest;fontSize=12;whiteSpace=wrap;html=1;fontStyle=1" parent="2UGpfIgIsperbDdM3htT-85" vertex="1">
          <mxGeometry y="86" width="160" height="30" as="geometry" />
        </mxCell>
        <mxCell id="2UGpfIgIsperbDdM3htT-89" value="&lt;span&gt;image&lt;/span&gt;" style="text;strokeColor=none;fillColor=none;spacingLeft=4;spacingRight=4;overflow=hidden;rotatable=0;points=[[0,0.5],[1,0.5]];portConstraint=eastwest;fontSize=12;whiteSpace=wrap;html=1;fontStyle=0" parent="2UGpfIgIsperbDdM3htT-85" vertex="1">
          <mxGeometry y="116" width="160" height="30" as="geometry" />
        </mxCell>
        <mxCell id="2UGpfIgIsperbDdM3htT-90" value="&lt;span&gt;comments&lt;/span&gt;" style="text;strokeColor=none;fillColor=none;spacingLeft=4;spacingRight=4;overflow=hidden;rotatable=0;points=[[0,0.5],[1,0.5]];portConstraint=eastwest;fontSize=12;whiteSpace=wrap;html=1;fontStyle=0" parent="2UGpfIgIsperbDdM3htT-85" vertex="1">
          <mxGeometry y="146" width="160" height="30" as="geometry" />
        </mxCell>
        <mxCell id="2UGpfIgIsperbDdM3htT-91" value="&lt;span&gt;likes&lt;/span&gt;" style="text;strokeColor=none;fillColor=none;spacingLeft=4;spacingRight=4;overflow=hidden;rotatable=0;points=[[0,0.5],[1,0.5]];portConstraint=eastwest;fontSize=12;whiteSpace=wrap;html=1;fontStyle=1" parent="2UGpfIgIsperbDdM3htT-85" vertex="1">
          <mxGeometry y="176" width="160" height="30" as="geometry" />
        </mxCell>
        <mxCell id="2UGpfIgIsperbDdM3htT-94" value="&lt;span&gt;create_datetime&lt;/span&gt;" style="text;strokeColor=none;fillColor=none;spacingLeft=4;spacingRight=4;overflow=hidden;rotatable=0;points=[[0,0.5],[1,0.5]];portConstraint=eastwest;fontSize=12;whiteSpace=wrap;html=1;fontStyle=1" parent="2UGpfIgIsperbDdM3htT-85" vertex="1">
          <mxGeometry y="206" width="160" height="30" as="geometry" />
        </mxCell>
        <mxCell id="2UGpfIgIsperbDdM3htT-92" style="edgeStyle=orthogonalEdgeStyle;rounded=0;orthogonalLoop=1;jettySize=auto;html=1;entryX=1.018;entryY=-0.067;entryDx=0;entryDy=0;entryPerimeter=0;" parent="1" source="2UGpfIgIsperbDdM3htT-86" target="2UGpfIgIsperbDdM3htT-30" edge="1">
          <mxGeometry relative="1" as="geometry">
            <Array as="points">
              <mxPoint x="260" y="1641" />
              <mxPoint x="260" y="1524" />
            </Array>
          </mxGeometry>
        </mxCell>
        <mxCell id="2UGpfIgIsperbDdM3htT-95" value="Comment" style="swimlane;fontStyle=0;childLayout=stackLayout;horizontal=1;startSize=26;horizontalStack=0;resizeParent=1;resizeParentMax=0;resizeLast=0;collapsible=1;marginBottom=0;align=center;fontSize=14;" parent="1" vertex="1">
          <mxGeometry x="320" y="1680" width="160" height="176" as="geometry">
            <mxRectangle x="80" y="1200" width="70" height="30" as="alternateBounds" />
          </mxGeometry>
        </mxCell>
        <mxCell id="2UGpfIgIsperbDdM3htT-96" value="commentator" style="text;strokeColor=none;fillColor=none;spacingLeft=4;spacingRight=4;overflow=hidden;rotatable=0;points=[[0,0.5],[1,0.5]];portConstraint=eastwest;fontSize=12;whiteSpace=wrap;html=1;fontStyle=1" parent="2UGpfIgIsperbDdM3htT-95" vertex="1">
          <mxGeometry y="26" width="160" height="30" as="geometry" />
        </mxCell>
        <mxCell id="2UGpfIgIsperbDdM3htT-97" value="text" style="text;strokeColor=none;fillColor=none;spacingLeft=4;spacingRight=4;overflow=hidden;rotatable=0;points=[[0,0.5],[1,0.5]];portConstraint=eastwest;fontSize=12;whiteSpace=wrap;html=1;fontStyle=1" parent="2UGpfIgIsperbDdM3htT-95" vertex="1">
          <mxGeometry y="56" width="160" height="30" as="geometry" />
        </mxCell>
        <mxCell id="2UGpfIgIsperbDdM3htT-98" value="likes" style="text;strokeColor=none;fillColor=none;spacingLeft=4;spacingRight=4;overflow=hidden;rotatable=0;points=[[0,0.5],[1,0.5]];portConstraint=eastwest;fontSize=12;whiteSpace=wrap;html=1;fontStyle=1" parent="2UGpfIgIsperbDdM3htT-95" vertex="1">
          <mxGeometry y="86" width="160" height="30" as="geometry" />
        </mxCell>
        <mxCell id="2UGpfIgIsperbDdM3htT-99" value="create_datetime" style="text;strokeColor=none;fillColor=none;spacingLeft=4;spacingRight=4;overflow=hidden;rotatable=0;points=[[0,0.5],[1,0.5]];portConstraint=eastwest;fontSize=12;whiteSpace=wrap;html=1;fontStyle=1" parent="2UGpfIgIsperbDdM3htT-95" vertex="1">
          <mxGeometry y="116" width="160" height="30" as="geometry" />
        </mxCell>
        <mxCell id="2UGpfIgIsperbDdM3htT-100" value="is_changed" style="text;strokeColor=none;fillColor=none;spacingLeft=4;spacingRight=4;overflow=hidden;rotatable=0;points=[[0,0.5],[1,0.5]];portConstraint=eastwest;fontSize=12;whiteSpace=wrap;html=1;fontStyle=1" parent="2UGpfIgIsperbDdM3htT-95" vertex="1">
          <mxGeometry y="146" width="160" height="30" as="geometry" />
        </mxCell>
        <mxCell id="2UGpfIgIsperbDdM3htT-101" style="edgeStyle=orthogonalEdgeStyle;rounded=0;orthogonalLoop=1;jettySize=auto;html=1;entryX=1;entryY=0.833;entryDx=0;entryDy=0;entryPerimeter=0;" parent="1" source="2UGpfIgIsperbDdM3htT-90" target="2UGpfIgIsperbDdM3htT-97" edge="1">
          <mxGeometry relative="1" as="geometry" />
        </mxCell>
        <mxCell id="2UGpfIgIsperbDdM3htT-103" style="edgeStyle=orthogonalEdgeStyle;rounded=0;orthogonalLoop=1;jettySize=auto;html=1;entryX=1.028;entryY=0.76;entryDx=0;entryDy=0;entryPerimeter=0;" parent="1" source="2UGpfIgIsperbDdM3htT-96" target="2UGpfIgIsperbDdM3htT-26" edge="1">
          <mxGeometry relative="1" as="geometry">
            <Array as="points">
              <mxPoint x="270" y="1721" />
              <mxPoint x="270" y="1429" />
            </Array>
          </mxGeometry>
        </mxCell>
        <mxCell id="2UGpfIgIsperbDdM3htT-104" value="&lt;font style=&quot;font-size: 12px;&quot;&gt;&lt;b style=&quot;&quot;&gt;&lt;font style=&quot;font-size: 14px;&quot;&gt;Модель Courier:&lt;br&gt;&lt;/font&gt;- name (str)&lt;br&gt;&lt;/b&gt;&lt;span style=&quot;&quot;&gt;&lt;b&gt;-&amp;nbsp;&lt;/b&gt;&lt;/span&gt;&lt;b&gt;courier_category (str)&lt;/b&gt;&lt;/font&gt;&lt;div&gt;&lt;font style=&quot;font-size: 12px;&quot;&gt;&lt;b&gt;-&amp;nbsp;&lt;/b&gt;&lt;b&gt;courier_status (str)&lt;/b&gt;&lt;span style=&quot;&quot;&gt;&lt;b&gt;&lt;br&gt;&lt;/b&gt;&lt;br&gt;&lt;/span&gt;&lt;/font&gt;&lt;/div&gt;" style="text;html=1;align=left;verticalAlign=middle;whiteSpace=wrap;rounded=0;" parent="1" vertex="1">
          <mxGeometry x="195" y="960" width="210" height="130" as="geometry" />
        </mxCell>
        <mxCell id="2UGpfIgIsperbDdM3htT-105" value="Courier" style="swimlane;fontStyle=0;childLayout=stackLayout;horizontal=1;startSize=26;horizontalStack=0;resizeParent=1;resizeParentMax=0;resizeLast=0;collapsible=1;marginBottom=0;align=center;fontSize=14;" parent="1" vertex="1">
          <mxGeometry x="720" y="1360" width="160" height="116" as="geometry">
            <mxRectangle x="80" y="1200" width="70" height="30" as="alternateBounds" />
          </mxGeometry>
        </mxCell>
        <mxCell id="2UGpfIgIsperbDdM3htT-106" value="name" style="text;strokeColor=none;fillColor=none;spacingLeft=4;spacingRight=4;overflow=hidden;rotatable=0;points=[[0,0.5],[1,0.5]];portConstraint=eastwest;fontSize=12;whiteSpace=wrap;html=1;fontStyle=1" parent="2UGpfIgIsperbDdM3htT-105" vertex="1">
          <mxGeometry y="26" width="160" height="30" as="geometry" />
        </mxCell>
        <mxCell id="2UGpfIgIsperbDdM3htT-107" value="&lt;b&gt;courier_category&lt;/b&gt;" style="text;strokeColor=none;fillColor=none;spacingLeft=4;spacingRight=4;overflow=hidden;rotatable=0;points=[[0,0.5],[1,0.5]];portConstraint=eastwest;fontSize=12;whiteSpace=wrap;html=1;fontStyle=1" parent="2UGpfIgIsperbDdM3htT-105" vertex="1">
          <mxGeometry y="56" width="160" height="30" as="geometry" />
        </mxCell>
        <mxCell id="2UGpfIgIsperbDdM3htT-108" value="courier_status" style="text;strokeColor=none;fillColor=none;spacingLeft=4;spacingRight=4;overflow=hidden;rotatable=0;points=[[0,0.5],[1,0.5]];portConstraint=eastwest;fontSize=12;whiteSpace=wrap;html=1;fontStyle=1" parent="2UGpfIgIsperbDdM3htT-105" vertex="1">
          <mxGeometry y="86" width="160" height="30" as="geometry" />
        </mxCell>
        <mxCell id="2UGpfIgIsperbDdM3htT-110" style="edgeStyle=orthogonalEdgeStyle;rounded=0;orthogonalLoop=1;jettySize=auto;html=1;exitX=1;exitY=0.5;exitDx=0;exitDy=0;entryX=0;entryY=0.5;entryDx=0;entryDy=0;" parent="1" source="2UGpfIgIsperbDdM3htT-78" target="2UGpfIgIsperbDdM3htT-107" edge="1">
          <mxGeometry relative="1" as="geometry" />
        </mxCell>
        <mxCell id="LiLD6YsfcbwsXmjhns37-6" style="edgeStyle=orthogonalEdgeStyle;rounded=0;orthogonalLoop=1;jettySize=auto;html=1;entryX=1;entryY=0.5;entryDx=0;entryDy=0;" parent="1" source="LiLD6YsfcbwsXmjhns37-3" target="2UGpfIgIsperbDdM3htT-24" edge="1">
          <mxGeometry relative="1" as="geometry" />
        </mxCell>
        <mxCell id="LiLD6YsfcbwsXmjhns37-7" style="edgeStyle=orthogonalEdgeStyle;rounded=0;orthogonalLoop=1;jettySize=auto;html=1;entryX=1;entryY=0.5;entryDx=0;entryDy=0;" parent="1" source="LiLD6YsfcbwsXmjhns37-1" target="2UGpfIgIsperbDdM3htT-19" edge="1">
          <mxGeometry relative="1" as="geometry" />
        </mxCell>
        <mxCell id="LiLD6YsfcbwsXmjhns37-8" style="edgeStyle=orthogonalEdgeStyle;rounded=0;orthogonalLoop=1;jettySize=auto;html=1;entryX=1.025;entryY=0.049;entryDx=0;entryDy=0;entryPerimeter=0;" parent="1" source="LiLD6YsfcbwsXmjhns37-4" target="2UGpfIgIsperbDdM3htT-18" edge="1">
          <mxGeometry relative="1" as="geometry">
            <Array as="points">
              <mxPoint x="490" y="1401" />
              <mxPoint x="490" y="1190" />
              <mxPoint x="280" y="1190" />
              <mxPoint x="280" y="1219" />
            </Array>
          </mxGeometry>
        </mxCell>
        <mxCell id="LiLD6YsfcbwsXmjhns37-9" value="&lt;div style=&quot;&quot;&gt;&lt;b style=&quot;color: rgb(230, 230, 230); background-color: initial; font-size: 18px;&quot;&gt;ToDo:&lt;/b&gt;&lt;/div&gt;&lt;div style=&quot;&quot;&gt;&lt;b style=&quot;color: rgb(230, 230, 230); background-color: initial; font-size: 18px;&quot;&gt;&lt;br&gt;&lt;/b&gt;&lt;/div&gt;&lt;div style=&quot;&quot;&gt;&lt;br&gt;&lt;/div&gt;" style="text;html=1;align=left;verticalAlign=top;whiteSpace=wrap;rounded=0;" parent="1" vertex="1">
          <mxGeometry x="80" y="1960" width="720" height="160" as="geometry" />
        </mxCell>
      </root>
    </mxGraphModel>
  </diagram>
</mxfile>
